<svg xmlns="http://www.w3.org/2000/svg" xmlns:xlink="http://www.w3.org/1999/xlink" version="1.1" x="0px" y="0px" viewBox="0 0 100 125" style="enable-background:new 0 0 100 100;" xml:space="preserve"><title>icons saved for noun</title><path d="M25.4,19.6l27.5,23.2l-2,2.2l5.4,5c0,0,2.2-2.4,3.4-3.6c0.8-0.9,2.2-1.2,3.3-0.6l13.2,9.9c0.9,0.7,1.3,1.9,1,3.1l-2.3,8.4  L96.2,87c2.8,2.6-10.3,12.5-11.4,10.4s-13-25-13-25s-1.7-3.7-3.5-3.6s-2,2.2-2,2.2l-1.8,11c0.1,2.1-6.3-1.5-5.6-3.8l3-8.7l-4.2-3.9  c-3.2,3-7,5.4-11.1,7l-3.5-6.3c3.4-1.1,6.6-3.1,9.2-5.6l-2.9-2.7l3.1-3.3l-5.5-5.1l-2.4,2.6L18.8,24.7l2.6-2.8L3.4,5.2l2.3-2.5  l14.7,13.7l4.6-5c0.7-0.8,1.3-0.5,1.2,0.6L25.4,19.6z M74,58.3l-12-9.1l-3,3.3l12.5,11.7L74,58.3z"/><text x="0" y="115" fill="#000000" font-size="5px" font-weight="bold" font-family="'Helvetica Neue', Helvetica, Arial-Unicode, Arial, Sans-serif">Created by Robert A. Di Ieso</text><text x="0" y="120" fill="#000000" font-size="5px" font-weight="bold" font-family="'Helvetica Neue', Helvetica, Arial-Unicode, Arial, Sans-serif">from the Noun Project</text></svg>